<svg width="20" height="21" viewBox="0 0 20 21" fill="none" xmlns="http://www.w3.org/2000/svg">
<path fill-rule="evenodd" clip-rule="evenodd" d="M20 10.3279C20 15.8507 15.5228 20.3279 10 20.3279C4.47717 20.3279 0 15.8507 0 10.3279C0 4.80505 4.47717 0.327881 10 0.327881C15.5228 0.327881 20 4.80505 20 10.3279ZM6.69646 9.41184C5.69471 9.84921 4.66546 10.2986 3.72427 10.817C3.23282 11.1769 3.88599 11.4314 4.49879 11.6702C4.59621 11.7081 4.69258 11.7457 4.78321 11.7832C4.85862 11.8064 4.93529 11.8308 5.013 11.8555C5.69454 12.0727 6.45446 12.3148 7.11613 11.9506C8.20304 11.3262 9.22875 10.6044 10.2537 9.88309C10.5895 9.64676 10.9252 9.41051 11.263 9.17776C11.2788 9.16763 11.2966 9.15605 11.3162 9.14342C11.6039 8.95688 12.251 8.53742 12.0116 9.11542C11.4456 9.73442 10.8393 10.2823 10.2298 10.8333C9.81896 11.2046 9.40663 11.5773 9.00413 11.9739C8.65358 12.2588 8.28954 12.8315 8.68208 13.2304C9.58621 13.8633 10.5045 14.4809 11.4222 15.0982C11.7208 15.299 12.0194 15.4998 12.3174 15.7012C12.8225 16.1044 13.6119 15.7782 13.7229 15.1481C13.7723 14.8582 13.8219 14.5684 13.8715 14.2785C14.1455 12.6765 14.4195 11.074 14.6617 9.46684C14.6946 9.21471 14.7319 8.96263 14.7692 8.71042C14.8597 8.09913 14.9503 7.48709 14.9785 6.87251C14.9056 6.25917 14.162 6.39405 13.7481 6.53196C11.621 7.34138 9.51504 8.2108 7.41746 9.09555C7.17983 9.2008 6.93896 9.30596 6.69646 9.41184Z" fill="black"/>
</svg>
