<svg width="20" height="21" viewBox="0 0 20 21" fill="none" xmlns="http://www.w3.org/2000/svg">
<path fill-rule="evenodd" clip-rule="evenodd" d="M0 10.3279C0 4.80503 4.47715 0.327881 10 0.327881C15.5228 0.327881 20 4.80503 20 10.3279C20 15.8507 15.5228 20.3279 10 20.3279C4.47715 20.3279 0 15.8507 0 10.3279ZM10.5231 13.6096C10.5231 13.6096 10.7156 13.5886 10.8142 13.4846C10.9045 13.3894 10.9013 13.2096 10.9013 13.2096C10.9013 13.2096 10.8893 12.3703 11.2864 12.2464C11.6776 12.1245 12.1801 13.058 12.7132 13.417C13.116 13.6884 13.4217 13.629 13.4217 13.629L14.8465 13.6096C14.8465 13.6096 15.5915 13.5645 15.2383 12.9894C15.2091 12.9423 15.0322 12.5639 14.1792 11.7865C13.2855 10.9727 13.4055 11.1044 14.4813 9.69658C15.1366 8.83931 15.3985 8.31594 15.3166 8.09215C15.2388 7.87809 14.7568 7.93494 14.7568 7.93494L13.153 7.94467C13.153 7.94467 13.0341 7.92879 12.9459 7.98051C12.8598 8.03121 12.804 8.14951 12.804 8.14951C12.804 8.14951 12.5505 8.81269 12.2119 9.37703C11.4977 10.5672 11.2123 10.6301 11.0954 10.5564C10.8236 10.3838 10.8914 9.86404 10.8914 9.49481C10.8914 8.34104 11.0699 7.86017 10.5445 7.73573C10.3702 7.69425 10.2419 7.6671 9.79585 7.6625C9.22354 7.65686 8.73939 7.66454 8.46497 7.79615C8.28238 7.88372 8.14152 8.07935 8.2276 8.09062C8.3335 8.10444 8.57349 8.15412 8.70079 8.32414C8.86512 8.54383 8.85939 9.03648 8.85939 9.03648C8.85939 9.03648 8.95381 10.3946 8.6387 10.5631C8.42272 10.6788 8.12639 10.4427 7.48938 9.36269C7.16332 8.80961 6.91707 8.19816 6.91707 8.19816C6.91707 8.19816 6.86959 8.08396 6.78456 8.02251C6.68178 7.94825 6.53831 7.92521 6.53831 7.92521L5.0144 7.93494C5.0144 7.93494 4.78538 7.94108 4.70138 8.03889C4.62678 8.12544 4.69564 8.30519 4.69564 8.30519C4.69564 8.30519 5.88879 11.0455 7.24001 12.4266C8.47906 13.6925 9.88558 13.6096 9.88558 13.6096H10.5231Z" fill="black"/>
</svg>
