<svg width="20" height="21" viewBox="0 0 20 21" fill="none" xmlns="http://www.w3.org/2000/svg">
<path fill-rule="evenodd" clip-rule="evenodd" d="M0 10.3279C0 4.80503 4.47715 0.327881 10 0.327881C15.5228 0.327881 20 4.80503 20 10.3279C20 15.8507 15.5228 20.3279 10 20.3279C4.47715 20.3279 0 15.8507 0 10.3279ZM15.1104 7.85839C14.9878 7.38714 14.6263 7.01604 14.1673 6.8901C13.3356 6.66121 10 6.66121 10 6.66121C10 6.66121 6.66442 6.66121 5.83261 6.8901C5.37364 7.01604 5.01218 7.38714 4.88952 7.85839C4.66667 8.71248 4.66667 10.4945 4.66667 10.4945C4.66667 10.4945 4.66667 12.2766 4.88952 13.1307C5.01218 13.602 5.37364 13.973 5.83261 14.0991C6.66442 14.3279 10 14.3279 10 14.3279C10 14.3279 13.3356 14.3279 14.1673 14.0991C14.6263 13.973 14.9878 13.602 15.1104 13.1307C15.3333 12.2766 15.3333 10.4945 15.3333 10.4945C15.3333 10.4945 15.3333 8.71248 15.1104 7.85839Z" fill="black"/>
<path fill-rule="evenodd" clip-rule="evenodd" d="M9 12.328V8.99463L11.6667 10.6614L9 12.328Z" fill="black"/>
</svg>
