<svg width="181" height="80" viewBox="0 0 181 80" fill="none" xmlns="http://www.w3.org/2000/svg">
<path fill-rule="evenodd" clip-rule="evenodd" d="M33.907 51.1184C32.8429 51.354 31.8827 51.1842 32.344 50.5512C33.9595 48.4812 35.759 47.0771 38.0534 45.9533C38.6391 45.6667 39.2203 45.3735 39.8745 45.336C40.251 45.3141 40.4844 45.4202 40.0244 45.8587C38.991 46.0283 38.537 46.5618 38.6624 47.4593L38.0418 48.3397C37.1864 49.5532 35.2774 50.8153 33.907 51.1184L33.907 51.1184ZM172.145 55.0577L172.968 55.0995L173.767 55.2215L174.54 55.4202L175.28 55.6913L175.984 56.0308L176.648 56.4341C176.968 56.6612 177.263 56.8934 177.56 57.1507C177.843 57.4205 178.103 57.692 178.36 57.9889C178.602 58.2972 178.82 58.6043 179.032 58.9356L179.404 59.6201L179.71 60.3429L179.945 61.0999L180.106 61.8864L180.189 62.6981V63.5253L180.106 64.3371L179.945 65.1238L179.71 65.8807L179.404 66.6034L179.032 67.288L178.599 67.9305C178.357 68.2382 178.11 68.5227 177.84 68.806C177.556 69.0767 177.272 69.3229 176.964 69.565L176.322 69.9988L175.637 70.3707L174.914 70.6764L174.157 70.9118L173.371 71.0727L172.559 71.1548H171.732L170.92 71.0727L170.134 70.9118L169.377 70.6765L168.654 70.3707L167.969 69.9988C167.639 69.787 167.331 69.5684 167.023 69.3258C166.727 69.0696 166.455 68.8101 166.184 68.5267C165.927 68.23 165.695 67.934 165.468 67.6148L165.064 66.9508L164.725 66.2462L164.454 65.5061L164.255 64.7337L164.133 63.9342L164.091 63.1115L164.133 62.2891L164.255 61.4896L164.454 60.7173L164.725 59.9769L165.064 59.2726L165.468 58.6086C165.695 58.2888 165.928 57.9927 166.184 57.697C166.455 57.4123 166.727 57.1536 167.023 56.8976L167.642 56.4341C167.975 56.2209 168.303 56.0324 168.654 55.8528L169.377 55.547L170.133 55.3116L170.92 55.1509L171.731 55.0684L172.145 55.0577V55.0577ZM172.145 56.1598C172.505 56.169 172.847 56.1946 173.205 56.2401C173.549 56.3014 173.875 56.3767 174.213 56.4725C174.538 56.5827 174.845 56.7032 175.159 56.8452C175.461 57.0002 175.744 57.1629 176.031 57.3473C176.307 57.543 176.562 57.7436 176.819 57.9662C177.063 58.1988 177.288 58.4341 177.51 58.6903C177.719 58.9565 177.908 59.2218 178.091 59.5079C178.261 59.8032 178.41 60.0949 178.551 60.4063C178.678 60.7275 178.784 61.041 178.878 61.3743C178.958 61.7174 179.017 62.0494 179.061 62.4003C179.089 62.761 179.097 63.1076 179.088 63.4703C179.061 63.8242 179.019 64.1624 178.956 64.5133C178.878 64.8517 178.787 65.1718 178.676 65.5018C178.55 65.82 178.415 66.1196 178.258 66.4246C178.089 66.7191 177.913 66.9938 177.716 67.2707C177.507 67.5365 177.294 67.7824 177.061 68.0273C176.816 68.2609 176.57 68.4736 176.304 68.6828C176.027 68.8793 175.753 69.0558 175.458 69.2248C175.153 69.3812 174.854 69.5163 174.535 69.6419C174.205 69.7536 173.885 69.8443 173.547 69.9224C173.196 69.9853 172.858 70.0277 172.504 70.0544C172.141 70.0632 171.796 70.0551 171.434 70.0277C171.084 69.9834 170.752 69.9242 170.408 69.8448C170.076 69.7503 169.762 69.6444 169.44 69.5176C169.129 69.3771 168.838 69.2277 168.542 69.0576C168.256 68.8747 167.991 68.6858 167.724 68.4761C167.468 68.2547 167.233 68.0304 167 67.7857C166.778 67.5292 166.577 67.2738 166.381 66.9978C166.197 66.7107 166.034 66.4278 165.879 66.1249C165.737 65.8116 165.616 65.5043 165.506 65.1789C165.41 64.8417 165.335 64.5158 165.274 64.1713C165.228 63.8136 165.203 63.4712 165.194 63.1116C165.203 62.7512 165.228 62.4089 165.274 62.0525C165.335 61.7069 165.411 61.3811 165.506 61.0447C165.617 60.7183 165.737 60.4118 165.879 60.0991C166.034 59.7951 166.198 59.5118 166.381 59.2257C166.578 58.9489 166.778 58.6935 167 58.4377C167.234 58.1921 167.469 57.9687 167.724 57.7474C167.991 57.5378 168.256 57.349 168.541 57.1663C168.838 56.996 169.129 56.8467 169.44 56.7062C169.762 56.579 170.076 56.4732 170.408 56.3787C170.753 56.299 171.085 56.2402 171.434 56.1959L172.145 56.1598H172.145ZM168.625 67.1919V58.3705H172.375C173.318 58.3705 174.002 58.4507 174.429 58.6088C174.856 58.7671 175.199 59.0483 175.456 59.453C175.713 59.8597 175.84 60.3218 175.84 60.8434C175.84 61.5047 175.645 62.0532 175.257 62.4845C174.869 62.9138 174.285 63.1869 173.511 63.2979C173.897 63.5237 174.215 63.7701 174.466 64.0392C174.717 64.3083 175.053 64.7847 175.479 65.4707L176.557 67.1919H174.427L173.139 65.2715C172.681 64.5855 172.369 64.1542 172.201 63.9757C172.032 63.7969 171.854 63.6757 171.665 63.6079C171.476 63.5421 171.178 63.5093 170.767 63.5093H170.408V67.1919H168.625L168.625 67.1919ZM170.408 62.1004H171.724C172.579 62.1004 173.113 62.0655 173.326 61.9936C173.538 61.9217 173.704 61.7964 173.825 61.6198C173.944 61.4432 174.006 61.2235 174.006 60.9584C174.006 60.6606 173.926 60.4224 173.768 60.2396C173.61 60.0567 173.386 59.9418 173.096 59.8925C172.952 59.8741 172.519 59.8638 171.796 59.8638H170.408V62.1004H170.408ZM96.1591 43.2451C97.6045 44.919 94.3788 48.1443 90.8823 50.628C87.5907 52.966 84.3356 54.3134 83.2356 53.157C82.4123 51.9535 85.2305 47.8311 88.6233 45.2839C91.4807 43.1388 94.9988 42.0608 96.1591 43.2451V43.2451ZM134.765 35.0035C132.738 35.1412 129.85 35.3674 127.432 35.4814C129.542 31.4671 136.097 21.2786 139.585 16.101C140.494 14.7503 140.71 13.337 140.71 12.4137C140.71 10.2248 138.421 10.9923 137.594 12.0301C134.118 16.3928 124.616 32.9481 123.434 35.6983C120.873 35.8255 116.849 36.035 114.216 36.2195C111.527 36.4462 112.157 41.1133 114.883 40.5735C117.64 40.0275 120.404 39.4638 121.642 39.2158L121.32 39.8822C116.526 45.0803 109.595 52.3853 103.422 55.7054C101.886 56.5314 98.7142 57.9411 98.8917 56.213C98.9862 55.2938 100.148 53.2874 101.061 51.9743C103.093 49.0523 106.845 45.9318 109.734 43.0292C110.786 41.973 112.251 40.4682 111.762 38.8896C111.291 37.3645 110.218 36.9921 109.031 36.9713C108.27 36.9578 107.461 37.0889 106.733 37.1533C103.981 37.3963 101.407 37.6273 98.6355 37.8545C98.0023 37.9064 97.7582 38.1691 97.5528 38.6473C94.2299 38.0628 91.5226 38.9175 87.6365 40.9961C86.3171 41.7017 83.9488 43.3742 82.0381 46.2456C81.2706 47.3991 80.5021 48.8257 80.0257 50.0885C79.6053 51.2029 79.4295 52.192 79.4328 52.7295C79.4431 54.3735 80.1305 55.7238 82.5332 56.1231C83.023 56.1995 83.514 56.2423 83.9998 56.2162C89.0809 55.9427 95.7264 49.3552 98.5714 44.8346C100.235 44.1021 100.009 43.1719 100.071 42.2303L105.181 41.724C101.433 44.3681 88.3832 62.0802 100.001 60.3087C105.488 59.4721 114.092 50.4379 119.282 44.0296C119.526 43.727 119.528 43.6815 119.357 44.0531C116.949 49.2788 114.764 54.4646 112.689 59.9083L112.695 59.8623L112.7 59.8164L112.706 59.7704L112.712 59.7245L112.718 59.6785L112.724 59.6327L112.73 59.5865L112.736 59.5406L112.742 59.4947L112.748 59.4488L112.754 59.4029L112.76 59.3568L112.766 59.3109L112.772 59.265L112.778 59.2191L112.784 59.173L112.79 59.1272L112.796 59.0812L112.802 59.0352L112.808 58.9892L112.813 58.9433L112.819 58.8973L112.825 58.8515L112.831 58.8054L112.837 58.7595L112.843 58.7136L112.849 58.6676L112.855 58.6217L112.861 58.5757L112.867 58.5297L112.873 58.4838L112.879 58.4378L112.885 58.3918L112.891 58.346L112.897 58.3L112.903 58.254L112.909 58.2081L112.915 58.1621L112.92 58.1163L112.926 58.0702L112.932 58.0242L112.938 57.9783L112.944 57.9324L112.95 57.8863L112.956 57.8405L112.962 57.7945L112.968 57.7484L112.974 57.7026L112.98 57.6566L112.986 57.6108L112.992 57.5647L112.998 57.5187L113.004 57.4728L113.01 57.4269L113.016 57.3808L113.022 57.335L113.028 57.289L113.034 57.243L113.039 57.1971L113.045 57.1511L113.051 57.1052L113.057 57.0593L113.063 57.0132L113.069 56.9673C113.198 55.9722 112.414 56.32 112.169 56.9825C111.257 59.45 109.169 63.4713 109.414 66.0555C109.585 67.8654 111.141 67.6759 111.907 66.3387C113.191 64.0971 113.964 62.1098 114.876 60.1393C118.632 51.7862 122.489 44.5262 125.823 38.3438C127.651 37.9487 128.774 37.7412 130.391 37.4328C130.801 37.3877 130.912 37.2635 130.37 37.7372C130.016 38.0468 129.699 38.3783 129.358 38.7018C129.141 38.9371 128.863 39.2735 128.524 39.6727C126.814 41.6877 122.548 48.6319 126.494 50.4973C132.197 53.193 139.185 45.6728 142.97 41.8268C143.782 42.2872 145.382 40.219 146.34 40.177C145.129 42.9275 144.155 45.2816 144.068 46.4547C143.941 48.1582 145.352 49.3128 146.83 48.6516C155.23 44.8953 161.246 37.2048 170.333 33.59C163.688 45.3731 158.404 56.7442 151.949 68.6511C151.389 69.6845 152.609 70.0196 153.068 69.2405C159.942 57.583 165.753 46.3699 172.668 34.7623C173.226 33.8251 173.765 33.0169 174.075 32.2915C175.003 30.112 173.5 29.2101 171.76 29.3167C169.824 29.4357 167.504 30.8272 165.306 31.9545C159.39 35.3654 155.431 38.6677 149.592 42.4294C150.454 40.954 151.974 38.1015 154.056 36.2151C156.766 33.7589 155.045 31.0481 153.17 31.0817C149.844 31.1416 148.694 34.1924 145.891 35.6901C145.647 35.8202 145.401 35.8787 145.166 35.9341C145.134 35.7811 145.102 35.6324 145.055 35.4842C144.495 33.6983 143.49 33.2469 140.551 33.3414C138.705 33.401 136.7 34.0951 134.765 35.0034L134.765 35.0035ZM132.046 41.9389C134.454 39.4415 137.601 37.7414 141.321 37.3357L141.322 37.3534L141.322 37.3712L141.323 37.389L141.323 37.4068L141.324 37.4246L141.324 37.4422L141.325 37.46L141.325 37.4778L141.326 37.4956L141.326 37.5133L141.327 37.5311L141.327 37.5488L141.328 37.5666L141.329 37.5843L141.329 37.6021L141.33 37.6199L141.33 37.6378L141.331 37.6555L141.331 37.6732L141.332 37.691L141.332 37.7088L141.333 37.7266L141.333 37.7444L141.334 37.762L141.334 37.7798L141.335 37.7976L141.336 37.8154L141.336 37.8331L141.337 37.8509L141.337 37.8686L141.338 37.8864L141.338 37.9041L141.339 37.9219L141.339 37.9396L141.34 37.9574L141.34 37.9751L141.341 37.9929L141.342 38.0107L141.342 38.0284L141.343 38.0462L141.343 38.0639L141.344 38.0816L141.344 38.0994L141.345 38.1172L141.345 38.1349L141.346 38.1527L141.346 38.1705L141.347 38.1883L141.347 38.2059L141.348 38.2237L141.349 38.2415L141.349 38.2593L141.35 38.2771L141.35 38.2948L141.351 38.3125L141.351 38.3303L141.352 38.3481L141.352 38.3658L141.353 38.3836L141.353 38.4014L141.354 38.419L141.355 38.4368L141.355 38.4546L141.356 38.4724C141.39 39.5971 141.484 40.1469 141.9 41.1762C139.925 42.7069 132.245 49.5542 129.067 48.2412C127.139 47.445 131.276 42.7377 132.046 41.9389L132.046 41.9389ZM85.7024 38.1626C91.5859 29.3648 98.3053 21.1519 105.263 13.2868C108.855 9.22703 112.487 5.2095 116.214 1.29245C117.199 0.257285 116.095 -0.547983 115.095 0.468334C99.6208 16.1989 82.5476 34.0956 73.1996 54.8929C76.1911 43.9543 80.4481 30.1731 83.8139 19.2216C85.2886 14.4226 82.619 12.3647 80.3758 16.2881C77.5678 21.1992 74.7237 26.0878 72.0586 31.0917C66.1787 42.9444 59.066 54.2278 53.0434 66.0327C52.1812 67.7227 51.0057 69.1322 50.6772 70.3375C49.6865 73.9705 53.1206 74.4108 54.5412 71.768L76.5663 30.8002C77.2472 29.3334 75.3063 36.5805 72.7269 45.8996C70.2186 54.963 67.5261 63.9766 65.0173 73.033C64.652 74.3507 64.3308 75.7597 64.2299 76.9655C64.0169 79.5077 65.466 80.7037 66.7269 79.5721C67.4836 78.8932 67.9873 77.1261 68.5429 75.0092C70.6947 66.8114 73.7889 59.1368 77.5514 51.8784C79.0699 48.9463 80.9107 45.7274 82.7006 42.8268C83.6713 41.2533 84.6746 39.6993 85.7023 38.1627L85.7024 38.1626ZM13.2889 62.0005C18.1224 59.2599 22.7368 55.4168 26.4636 51.1559C28.5821 48.7336 31.4464 45.0173 30.1204 44.2834C28.9459 43.6334 26.6889 44.7584 24.5162 45.6176C22.6234 46.366 21.246 47.1623 19.3673 47.9383L16.5305 54.0104C18.1786 52.9002 19.6801 52.0815 21.2003 51.1255C21.684 51.0588 22.1033 51.0957 22.0738 51.8564C22.0088 51.9966 21.9689 52.1608 21.8543 52.2445C19.2846 54.1221 17.6112 55.2952 14.8222 57.5161C14.5282 58.1253 13.9663 59.2183 13.6586 59.8075C12.8231 61.407 11.1728 62.1096 11.7278 60.5018C11.792 60.344 11.9972 59.7475 12.058 59.5981C11.3444 60.1815 7.52816 63.4061 7.20317 63.8145C6.84773 64.2615 10.5043 63.5775 13.2889 62.0005L13.2889 62.0005ZM68.9197 32.7585L63.0102 35.2934C60.6893 39.2278 58.0121 43.7307 55.602 47.8845C51.5266 54.9089 48.0098 61.1194 43.9654 68.1654C43.656 68.7042 43.3263 69.2288 42.9453 69.5562C41.5706 70.7374 39.745 71.1609 40.2741 68.2252C40.8381 65.0961 41.7031 62.1194 42.681 58.1205C42.8933 57.2525 44.1346 57.4141 44.0082 58.1694C43.648 60.3207 43.2877 62.4719 42.9275 64.6234C47.291 56.7805 50.702 50.8518 54.8202 43.4521C55.0588 43.0231 55.0216 43.0732 54.6933 43.3412C52.6667 44.9962 50.5118 46.6914 48.5624 48.4292C45.5472 51.1171 42.3251 54.0068 40.4146 54.3094C39.3584 54.4766 38.9892 53.2866 39.1254 51.8856C37.0817 54.2006 31.1821 56.9098 29.0248 53.6304C25.001 58.504 17.9436 64.233 11.6762 66.2604C10.6112 66.6047 9.58226 66.8778 8.47786 67.1061C6.8646 67.4398 4.07275 67.7999 3.16789 66.5998C2.61688 65.7669 2.56005 64.6522 3.37797 63.6907C5.65856 61.0095 10.5257 57.8897 13.5755 55.8858L14.6573 53.3285L16.1849 49.56C11.4332 52.1942 6.55836 55.218 1.8778 58.2606C0.818726 58.9491 0.195926 57.6431 1.73465 56.5043C7.24391 52.0948 13.5211 48.682 17.4978 45.2146C19.0437 43.7686 20.1481 40.6518 22.119 36.407L23.9967 32.2845C21.5184 31.5541 19.2387 32.2472 17.0895 34.2193C16.0428 35.1793 14.0049 35.5993 14.0049 33.1902C14.3839 28.9489 22.9447 27.9473 25.9896 28.5071L31.9669 16.3106C34.4816 11.6511 36.3328 15.4493 35.4623 17.6764C33.6345 21.614 30.9167 25.6339 28.9637 29.4983C30.8833 30.2746 31.6762 32.234 31.2981 34.2478C30.9082 36.3252 29.4148 38.2242 28.2418 39.8461C30.6079 39.7063 33.5684 39.3062 33.6848 43.8037C35.7947 43.0994 42.9243 38.1119 44.4774 42.9907C45.0576 44.8138 43.934 47.7888 41.8654 49.2223L41.8543 50.9624C46.6335 47.3703 51.5939 43.8524 56.4023 40.4675L56.4025 40.4671C56.9318 39.514 57.465 38.5525 58.0035 37.5797C57.5607 37.8179 56.2559 38.5551 55.0919 39.2806C53.2103 40.4533 50.4539 43.2196 48.3259 42.8956C46.9503 42.6862 45.7746 40.4869 47.7282 38.9822C50.2798 37.0171 57.7009 33.9273 60.6483 32.9746L72.3883 12.0199C73.6755 9.72262 77.5276 11.4092 75.6189 14.3615C73.2705 18.1546 64.7965 32.0285 65.0018 32.0285C66.0993 31.7873 68.4162 31.335 69.5138 31.0935C71.3435 30.6714 70.3563 32.252 68.9196 32.7585L68.9197 32.7585ZM27.0466 33.1613C25.7323 35.5368 24.3994 38.0952 23.1215 40.5867C22.9725 40.8771 26.8015 39.1567 27.5946 35.3904C27.7742 34.5376 27.7476 33.7446 27.0466 33.1613H27.0466Z" fill="black"/>
</svg>
