<svg width="256" height="134" viewBox="0 0 256 134" fill="none" xmlns="http://www.w3.org/2000/svg">
<path fill-rule="evenodd" clip-rule="evenodd" d="M47.4534 85.3876C45.9395 85.7772 44.5735 85.4965 45.2298 84.4496C47.5281 81.0262 50.0882 78.7041 53.3524 76.8456C54.1856 76.3715 55.0125 75.8868 55.9433 75.8247C56.4789 75.7885 56.8109 75.9639 56.1565 76.6891C54.6863 76.9696 54.0404 77.8519 54.2188 79.3362L53.3359 80.7922C52.1189 82.7991 49.403 84.8864 47.4534 85.3876ZM244.122 91.9025L245.292 91.9717L246.43 92.1734L247.529 92.502L248.582 92.9504L249.584 93.5117L250.529 94.1788C250.983 94.5543 251.404 94.9384 251.826 95.3638C252.229 95.8101 252.597 96.2591 252.963 96.75C253.307 97.26 253.619 97.7679 253.92 98.3157L254.45 99.4478L254.885 100.643L255.219 101.895L255.448 103.196L255.565 104.538V105.906L255.448 107.249L255.219 108.55L254.884 109.802L254.45 110.997L253.92 112.129L253.303 113.192C252.959 113.701 252.609 114.171 252.224 114.64C251.821 115.087 251.416 115.494 250.978 115.895L250.064 116.612L249.09 117.227L248.062 117.733L246.985 118.122L245.866 118.388L244.711 118.524H243.534L242.379 118.388L241.26 118.122L240.183 117.733L239.155 117.227L238.181 116.612C237.711 116.262 237.273 115.9 236.834 115.499C236.413 115.075 236.026 114.646 235.642 114.178C235.276 113.687 234.945 113.197 234.622 112.669L234.048 111.571L233.566 110.406L233.18 109.182L232.897 107.905L232.724 106.582L232.664 105.222L232.724 103.862L232.897 102.54L233.18 101.262L233.566 100.038L234.048 98.8731L234.622 97.7749C234.946 97.2461 235.277 96.7565 235.641 96.2673C236.027 95.7966 236.414 95.3687 236.835 94.9454L237.716 94.1788C238.189 93.8262 238.656 93.5144 239.155 93.2175L240.183 92.7116L241.26 92.3223L242.379 92.0566L243.533 91.9201L244.122 91.9025ZM244.122 93.7252C244.634 93.7403 245.12 93.7828 245.63 93.858C246.119 93.9593 246.583 94.0839 247.063 94.2423C247.526 94.4245 247.963 94.6239 248.409 94.8587C248.839 95.1151 249.242 95.384 249.651 95.689C250.043 96.0127 250.406 96.3445 250.772 96.7125C251.119 97.0973 251.438 97.4863 251.754 97.91C252.052 98.3503 252.32 98.7891 252.581 99.2623C252.823 99.7506 253.035 100.233 253.236 100.748C253.416 101.279 253.567 101.798 253.701 102.349C253.814 102.916 253.899 103.465 253.962 104.046C254.001 104.642 254.012 105.215 254 105.815C253.962 106.401 253.901 106.96 253.812 107.54C253.701 108.1 253.572 108.629 253.413 109.175C253.234 109.701 253.042 110.197 252.819 110.701C252.579 111.188 252.328 111.642 252.048 112.1C251.751 112.54 251.448 112.947 251.116 113.352C250.767 113.738 250.418 114.09 250.039 114.436C249.645 114.761 249.255 115.053 248.836 115.332C248.402 115.591 247.975 115.814 247.523 116.022C247.053 116.207 246.598 116.357 246.116 116.486C245.617 116.59 245.136 116.66 244.633 116.704C244.116 116.719 243.626 116.705 243.11 116.66C242.612 116.587 242.141 116.489 241.651 116.357C241.178 116.201 240.732 116.026 240.273 115.816C239.831 115.584 239.417 115.337 238.995 115.056C238.589 114.753 238.212 114.441 237.832 114.094C237.468 113.728 237.134 113.357 236.802 112.952C236.486 112.528 236.2 112.106 235.921 111.649C235.659 111.174 235.428 110.706 235.207 110.206C235.005 109.687 234.834 109.179 234.677 108.641C234.541 108.083 234.434 107.544 234.346 106.975C234.282 106.383 234.245 105.817 234.232 105.222C234.245 104.626 234.282 104.06 234.346 103.471C234.434 102.899 234.541 102.36 234.677 101.804C234.834 101.264 235.006 100.757 235.207 100.24C235.428 99.7372 235.661 99.2687 235.921 98.7955C236.202 98.3377 236.487 97.9155 236.802 97.4923C237.135 97.0862 237.469 96.7167 237.832 96.3508C238.213 96.0041 238.589 95.6918 238.995 95.3897C239.417 95.108 239.832 94.8612 240.273 94.6287C240.732 94.4185 241.178 94.2435 241.651 94.0871C242.142 93.9554 242.613 93.8581 243.111 93.7848L244.122 93.7252ZM239.114 111.97V97.3813H244.449C245.79 97.3813 246.764 97.5138 247.371 97.7753C247.979 98.037 248.467 98.5022 248.832 99.1714C249.198 99.844 249.379 100.608 249.379 101.471C249.379 102.565 249.101 103.472 248.549 104.185C247.997 104.895 247.167 105.347 246.065 105.53C246.615 105.904 247.067 106.311 247.424 106.756C247.78 107.201 248.26 107.989 248.864 109.124L250.399 111.97H247.368L245.536 108.794C244.885 107.66 244.441 106.946 244.201 106.651C243.961 106.355 243.707 106.155 243.438 106.043C243.17 105.934 242.746 105.88 242.161 105.88H241.65V111.97L239.114 111.97ZM241.65 103.55H243.523C244.739 103.55 245.498 103.492 245.802 103.373C246.103 103.254 246.34 103.047 246.512 102.755C246.682 102.463 246.769 102.099 246.769 101.661C246.769 101.169 246.655 100.775 246.431 100.472C246.205 100.17 245.887 99.9799 245.475 99.8983C245.271 99.8679 244.654 99.8508 243.625 99.8508H241.65L241.65 103.55ZM136.018 72.3667C138.075 75.135 133.485 80.4691 128.511 84.5766C123.828 88.4431 119.197 90.6715 117.632 88.7591C116.461 86.7688 120.47 79.951 125.297 75.7385C129.362 72.1909 134.367 70.4081 136.018 72.3667ZM190.941 58.7367C188.058 58.9644 183.95 59.3386 180.51 59.527C183.511 52.8882 192.837 36.0383 197.799 27.4757C199.093 25.2418 199.4 22.9045 199.4 21.3775C199.4 17.7576 196.144 19.0268 194.967 20.7432C190.022 27.9582 176.503 55.3375 174.822 59.8858C171.179 60.0961 165.453 60.4426 161.707 60.7477C157.882 61.1226 158.779 68.8411 162.657 67.9484C166.579 67.0455 170.511 66.1132 172.272 65.7031L171.815 66.8051C164.994 75.4018 155.134 87.4829 146.351 92.9737C144.165 94.3397 139.653 96.6711 139.906 93.8132C140.04 92.2929 141.693 88.9748 142.992 86.8031C145.883 81.9707 151.221 76.81 155.331 72.0097C156.827 70.2629 158.912 67.7743 158.217 65.1636C157.545 62.6413 156.02 62.0254 154.331 61.991C153.248 61.9687 152.097 62.1856 151.061 62.292C147.146 62.6939 143.484 63.0759 139.541 63.4517C138.641 63.5375 138.293 63.9719 138.001 64.7628C133.274 63.7962 129.422 65.2097 123.893 68.6472C122.016 69.8143 118.647 72.5802 115.929 77.3289C114.837 79.2366 113.743 81.596 113.066 83.6844C112.468 85.5274 112.217 87.1631 112.222 88.0521C112.237 90.771 113.215 93.0042 116.633 93.6645C117.33 93.7908 118.028 93.8615 118.719 93.8185C125.948 93.3661 135.403 82.4717 139.45 74.9954C141.816 73.784 141.495 72.2456 141.583 70.6884L148.853 69.8511C143.522 74.2239 124.956 103.516 141.484 100.587C149.29 99.203 161.531 84.2623 168.914 73.6641C169.263 73.1637 169.265 73.0884 169.021 73.703C165.596 82.3453 162.487 90.9216 159.534 99.9245L159.543 99.8484L159.551 99.7724L159.56 99.6964L159.568 99.6204L159.577 99.5444L159.585 99.4686L159.594 99.3923L159.602 99.3163L159.611 99.2405L159.619 99.1645L159.627 99.0887L159.636 99.0124L159.644 98.9364L159.653 98.8605L159.661 98.7846L159.67 98.7084L159.678 98.6326L159.687 98.5566L159.695 98.4805L159.704 98.4045L159.712 98.3285L159.721 98.2525L159.729 98.1767L159.738 98.1004L159.746 98.0246L159.754 97.9486L159.763 97.8726L159.771 97.7966L159.78 97.7206L159.788 97.6445L159.797 97.5686L159.805 97.4925L159.814 97.4165L159.822 97.3407L159.831 97.2647L159.839 97.1885L159.848 97.1126L159.856 97.0366L159.864 96.9607L159.873 96.8846L159.881 96.8085L159.89 96.7326L159.898 96.6566L159.907 96.5805L159.915 96.5047L159.924 96.4287L159.932 96.3524L159.941 96.2766L159.949 96.2006L159.957 96.1247L159.966 96.0486L159.974 95.9725L159.983 95.8966L159.991 95.8206L160 95.7445L160.008 95.6687L160.017 95.5927L160.025 95.5165L160.034 95.4406L160.042 95.3646L160.051 95.2886L160.059 95.2127L160.067 95.1365L160.076 95.0606C160.259 93.4148 159.144 93.9901 158.796 95.0857C157.497 99.1666 154.527 105.817 154.876 110.091C155.12 113.084 157.332 112.77 158.422 110.559C160.249 106.852 161.349 103.565 162.647 100.306C167.99 86.4921 173.477 74.4855 178.221 64.2609C180.821 63.6074 182.418 63.2642 184.719 62.7543C185.303 62.6798 185.461 62.4744 184.689 63.2577C184.185 63.7698 183.734 64.318 183.249 64.8529C182.941 65.2421 182.546 65.7985 182.064 66.4586C179.631 69.7911 173.561 81.2755 179.176 84.3604C187.289 88.8186 197.23 76.3817 202.615 70.0212C203.77 70.7825 206.046 67.3621 207.409 67.2927C205.687 71.8415 204.301 75.7347 204.177 77.6748C203.997 80.492 206.003 82.4015 208.106 81.3081C220.058 75.0958 228.615 62.3772 241.544 56.399C232.09 75.8861 224.573 94.6916 215.39 114.383C214.593 116.092 216.328 116.647 216.981 115.358C226.761 96.0788 235.028 77.5346 244.866 58.3378C245.66 56.7878 246.427 55.4512 246.867 54.2515C248.188 50.6471 246.049 49.1556 243.574 49.3319C240.819 49.5286 237.52 51.8299 234.392 53.6943C225.975 59.3352 220.343 64.7966 212.037 71.0176C213.263 68.5777 215.425 63.8602 218.386 60.7404C222.242 56.6784 219.794 52.1952 217.126 52.2508C212.395 52.3498 210.758 57.3954 206.77 59.8722C206.424 60.0874 206.074 60.184 205.74 60.2757C205.694 60.0227 205.648 59.7769 205.582 59.5316C204.785 56.5781 203.355 55.8317 199.174 55.9879C196.547 56.0865 193.695 57.2345 190.941 58.7367ZM187.074 70.2066C190.5 66.0764 194.977 63.2647 200.269 62.5937L200.27 62.623L200.271 62.6524L200.271 62.6819L200.272 62.7113L200.273 62.7407L200.274 62.7698L200.274 62.7993L200.275 62.8287L200.276 62.8581L200.277 62.8874L200.278 62.9168L200.278 62.9461L200.279 62.9755L200.28 63.0048L200.281 63.0343L200.281 63.0637L200.282 63.0933L200.283 63.1225L200.284 63.1518L200.285 63.1813L200.285 63.2107L200.286 63.2401L200.287 63.2695L200.288 63.2987L200.288 63.3281L200.289 63.3575L200.29 63.387L200.291 63.4164L200.292 63.4457L200.292 63.475L200.293 63.5044L200.294 63.5337L200.294 63.5631L200.295 63.5925L200.296 63.622L200.297 63.6511L200.298 63.6805L200.298 63.7099L200.299 63.7394L200.3 63.7688L200.301 63.7981L200.302 63.8274L200.302 63.8568L200.303 63.8862L200.304 63.9155L200.305 63.9449L200.305 63.9744L200.306 64.0038L200.307 64.0329L200.308 64.0624L200.308 64.0918L200.309 64.1212L200.31 64.1506L200.311 64.1799L200.311 64.2092L200.312 64.2386L200.313 64.2681L200.314 64.2973L200.315 64.3268L200.315 64.3562L200.316 64.3853L200.317 64.4148L200.318 64.4442L200.319 64.4736C200.367 66.3336 200.501 67.243 201.093 68.9451C198.283 71.4767 187.357 82.8008 182.835 80.6294C180.093 79.3126 185.978 71.5276 187.074 70.2066ZM121.142 63.9612C129.512 49.4114 139.072 35.8288 148.97 22.8215C154.08 16.1074 159.248 9.46316 164.55 2.98512C165.951 1.27316 164.381 -0.0586014 162.958 1.62219C140.943 27.6375 116.653 57.2351 103.354 91.63C107.61 73.5396 113.666 50.7482 118.455 32.6364C120.553 24.6998 116.755 21.2965 113.564 27.785C109.569 35.9071 105.522 43.9918 101.731 52.2674C93.3657 71.8694 83.2466 90.53 74.6784 110.053C73.4518 112.848 71.7794 115.179 71.312 117.172C69.9025 123.181 74.7882 123.909 76.8093 119.538L108.144 51.7852C109.113 49.3595 106.351 61.3447 102.682 76.7568C99.1132 91.7458 95.2827 106.653 91.7134 121.63C91.1937 123.809 90.7368 126.14 90.5932 128.134C90.2902 132.338 92.3517 134.316 94.1456 132.445C95.2222 131.322 95.9387 128.399 96.7292 124.898C99.7905 111.341 104.193 98.6485 109.545 86.6445C111.706 81.7954 114.325 76.472 116.871 71.6749C118.252 69.0726 119.68 66.5024 121.142 63.9612ZM18.1204 103.385C24.997 98.852 31.5619 92.4964 36.8639 85.4496C39.8778 81.4437 43.9528 75.2975 42.0663 74.0839C40.3954 73.0088 37.1844 74.8694 34.0933 76.2903C31.4005 77.5281 29.4409 78.845 26.7681 80.1283L22.7322 90.1704C25.077 88.3344 27.2131 86.9804 29.3759 85.3994C30.0639 85.2891 30.6606 85.35 30.6186 86.6081C30.526 86.84 30.4694 87.1116 30.3063 87.25C26.6505 90.3552 24.2697 92.2953 20.3018 95.9683C19.8836 96.9757 19.0842 98.7833 18.6465 99.7578C17.4578 102.403 15.11 103.565 15.8995 100.906C15.9908 100.645 16.2828 99.6585 16.3693 99.4114C15.354 100.376 9.92477 105.709 9.46241 106.385C8.95672 107.124 14.1589 105.993 18.1204 103.385ZM97.2653 55.0239L88.858 59.2162C85.556 65.7229 81.7472 73.1698 78.3184 80.0394C72.5205 91.6563 67.5172 101.927 61.7634 113.58C61.3232 114.471 60.854 115.339 60.312 115.88C58.3563 117.834 55.759 118.534 56.5118 113.679C57.3141 108.504 58.5447 103.581 59.936 96.9678C60.238 95.5323 62.004 95.7995 61.8242 97.0487C61.3117 100.606 60.7992 104.164 60.2867 107.722C66.4946 94.7516 71.3473 84.9467 77.2062 72.709C77.5457 71.9996 77.4928 72.0823 77.0256 72.5257C74.1424 75.2627 71.0767 78.0663 68.3033 80.9402C64.0136 85.3855 59.4297 90.1644 56.7116 90.6649C55.2091 90.9414 54.6837 88.9734 54.8776 86.6564C51.97 90.4849 43.5767 94.9655 40.5076 89.542C34.783 97.6021 24.7427 107.077 15.826 110.43C14.311 110.999 12.8471 111.451 11.2759 111.828C8.98073 112.38 5.00882 112.976 3.7215 110.991C2.93759 109.613 2.85673 107.77 4.02037 106.18C7.26493 101.746 14.1893 96.5861 18.5282 93.2719L20.0673 89.0427L22.2405 82.8103C15.4805 87.1668 8.54505 92.1675 1.88611 97.1995C0.379388 98.3381 -0.506658 96.1783 1.68246 94.2949C9.52036 87.0023 18.4508 81.3583 24.1084 75.6239C26.3077 73.2324 27.8789 68.0779 30.6829 61.0579L33.3543 54.24C29.8283 53.0321 26.5851 54.1783 23.5275 57.4398C22.0384 59.0274 19.1391 59.722 19.1391 55.7379C19.6783 48.7236 31.8576 47.0671 36.1894 47.993L44.6932 27.8222C48.2709 20.1163 50.9045 26.3978 49.6662 30.081C47.0657 36.593 43.1992 43.2412 40.4207 49.6322C43.1516 50.9159 44.2797 54.1564 43.7418 57.487C43.187 60.9225 41.0624 64.0631 39.3937 66.7455C42.7598 66.5143 46.9716 65.8525 47.1373 73.2905C50.139 72.1258 60.2822 63.8775 62.4917 71.946C63.3172 74.961 61.7186 79.8811 58.7757 82.2518L58.7599 85.1296C65.5592 79.189 72.6162 73.3711 79.4571 67.7731C80.2101 66.1969 80.969 64.6061 81.735 62.9972C81.105 63.3912 79.2488 64.6103 77.5928 65.8102C74.9159 67.7497 70.9944 72.3245 67.9669 71.7887C66.0098 71.4424 64.3372 67.8051 67.1165 65.3168C70.7466 62.0668 81.3045 56.9569 85.4977 55.3812L102.2 20.7263C104.031 16.927 109.512 19.7163 106.796 24.5989C103.455 30.8718 91.3993 53.8167 91.6914 53.8167C93.2528 53.4177 96.549 52.6697 98.1105 52.2703C100.714 51.5722 99.3094 54.1861 97.2653 55.0239ZM37.6932 55.69C35.8234 59.6187 33.9271 63.8498 32.1091 67.9702C31.8971 68.4506 37.3446 65.6054 38.4729 59.3765C38.7284 57.9661 38.6906 56.6547 37.6932 55.69Z" fill="white"/>
</svg>
