<svg width="792" height="376" viewBox="0 0 792 376" fill="none" xmlns="http://www.w3.org/2000/svg">
<path opacity="0.15" fill-rule="evenodd" clip-rule="evenodd" d="M146.03 239.748C141.335 240.853 137.098 240.057 139.134 237.088C146.262 227.38 154.202 220.795 164.326 215.524C166.91 214.18 169.475 212.805 172.361 212.629C174.023 212.526 175.052 213.024 173.023 215.08C168.463 215.876 166.46 218.378 167.013 222.587L164.275 226.716C160.5 232.407 152.077 238.327 146.03 239.748ZM755.992 258.224L759.622 258.42L763.15 258.992L766.558 259.924L769.824 261.196L772.932 262.788L775.862 264.679C777.27 265.744 778.575 266.834 779.886 268.04C781.134 269.306 782.278 270.579 783.412 271.971C784.48 273.417 785.445 274.858 786.381 276.411L788.023 279.622L789.371 283.012L790.41 286.562L791.12 290.251L791.482 294.058V297.937L791.12 301.745L790.41 305.434L789.371 308.984L788.023 312.374L786.381 315.585L784.467 318.598C783.399 320.041 782.312 321.376 781.118 322.705C779.869 323.974 778.613 325.129 777.255 326.264L774.42 328.299L771.399 330.043L768.211 331.477L764.871 332.581L761.4 333.336L757.818 333.72H754.168L750.587 333.336L747.116 332.581L743.776 331.477L740.587 330.043L737.566 328.299C736.108 327.305 734.751 326.28 733.389 325.142C732.083 323.941 730.883 322.724 729.69 321.395C728.556 320.003 727.531 318.615 726.529 317.118L724.749 314.003L723.251 310.699L722.055 307.228L721.178 303.605L720.64 299.855L720.455 295.997L720.64 292.14L721.178 288.39L722.055 284.768L723.251 281.296L724.749 277.992L726.529 274.878C727.533 273.378 728.559 271.99 729.689 270.602C730.884 269.267 732.085 268.054 733.39 266.853L736.123 264.679C737.592 263.68 739.039 262.795 740.586 261.953L743.777 260.519L747.116 259.415L750.587 258.661L754.166 258.274L755.992 258.224ZM755.992 263.393C757.579 263.436 759.088 263.556 760.668 263.77C762.186 264.057 763.625 264.41 765.114 264.86C766.549 265.376 767.904 265.942 769.289 266.608C770.622 267.335 771.872 268.097 773.14 268.962C774.356 269.88 775.483 270.821 776.617 271.865C777.693 272.956 778.683 274.059 779.663 275.261C780.586 276.509 781.418 277.754 782.228 279.096C782.977 280.481 783.636 281.849 784.258 283.309C784.816 284.816 785.284 286.286 785.702 287.849C786.051 289.459 786.314 291.016 786.509 292.661C786.63 294.353 786.666 295.979 786.627 297.68C786.509 299.34 786.322 300.926 786.045 302.571C785.7 304.159 785.299 305.66 784.807 307.207C784.253 308.7 783.657 310.105 782.966 311.536C782.22 312.916 781.442 314.205 780.575 315.504C779.652 316.751 778.713 317.904 777.682 319.052C776.602 320.148 775.517 321.145 774.344 322.127C773.122 323.048 771.91 323.876 770.611 324.669C769.265 325.402 767.943 326.036 766.539 326.625C765.082 327.149 763.671 327.574 762.177 327.94C760.629 328.235 759.137 328.434 757.575 328.559C755.972 328.601 754.452 328.563 752.854 328.434C751.31 328.226 749.847 327.949 748.327 327.576C746.86 327.133 745.477 326.637 744.055 326.042C742.685 325.383 741.398 324.682 740.092 323.884C738.832 323.027 737.661 322.141 736.484 321.157C735.355 320.119 734.318 319.067 733.289 317.919C732.309 316.716 731.423 315.518 730.558 314.224C729.745 312.877 729.027 311.55 728.343 310.13C727.717 308.661 727.185 307.219 726.698 305.693C726.276 304.112 725.943 302.583 725.673 300.967C725.472 299.29 725.359 297.684 725.319 295.997C725.359 294.307 725.472 292.702 725.673 291.03C725.943 289.409 726.277 287.881 726.698 286.303C727.186 284.773 727.718 283.335 728.343 281.869C729.028 280.443 729.75 279.114 730.558 277.772C731.427 276.474 732.312 275.276 733.29 274.076C734.321 272.925 735.358 271.877 736.483 270.839C737.664 269.856 738.832 268.97 740.091 268.114C741.4 267.315 742.685 266.615 744.055 265.955C745.478 265.359 746.862 264.863 748.328 264.42C749.85 264.046 751.312 263.77 752.856 263.562L755.992 263.393ZM740.459 315.134V273.761H757.007C761.166 273.761 764.185 274.137 766.069 274.879C767.955 275.621 769.468 276.94 770.601 278.838C771.734 280.746 772.295 282.913 772.295 285.359C772.295 288.461 771.434 291.033 769.721 293.056C768.009 295.069 765.435 296.35 762.019 296.871C763.722 297.93 765.127 299.086 766.233 300.348C767.338 301.61 768.825 303.844 770.7 307.062L775.458 315.134H766.06L760.378 306.128C758.357 302.91 756.98 300.887 756.237 300.05C755.494 299.211 754.705 298.643 753.871 298.325C753.038 298.016 751.723 297.862 749.911 297.862H748.325V315.134L740.459 315.134ZM748.325 291.255H754.134C757.904 291.255 760.261 291.091 761.203 290.754C762.136 290.417 762.871 289.829 763.405 289.001C763.931 288.172 764.203 287.142 764.203 285.899C764.203 284.502 763.849 283.385 763.152 282.527C762.454 281.67 761.466 281.131 760.188 280.9C759.554 280.813 757.641 280.765 754.452 280.765H748.325L748.325 291.255ZM420.711 202.822C427.089 210.673 412.856 225.8 397.428 237.448C382.904 248.414 368.541 254.733 363.688 249.31C360.055 243.665 372.49 224.331 387.46 212.384C400.068 202.324 415.592 197.268 420.711 202.822ZM591.054 164.169C582.111 164.814 569.369 165.875 558.7 166.41C568.009 147.583 596.932 99.7979 612.321 75.5149C616.337 69.1797 617.288 62.5513 617.288 58.2211C617.288 47.9551 607.188 51.5545 603.541 56.422C588.202 76.8834 546.273 154.529 541.059 167.427C529.76 168.024 512.003 169.006 500.385 169.872C488.522 170.935 491.302 192.824 503.331 190.292C515.495 187.732 527.688 185.088 533.151 183.925L531.733 187.05C510.579 211.43 479.998 245.691 452.757 261.262C445.979 265.136 431.986 271.747 432.769 263.643C433.186 259.331 438.311 249.921 442.34 243.763C451.306 230.058 467.863 215.423 480.61 201.81C485.249 196.856 491.715 189.799 489.56 182.395C487.477 175.242 482.747 173.495 477.507 173.398C474.149 173.334 470.58 173.949 467.367 174.251C455.225 175.391 443.868 176.474 431.638 177.54C428.844 177.783 427.767 179.015 426.861 181.258C412.199 178.517 400.253 182.525 383.106 192.274C377.284 195.584 366.834 203.428 358.404 216.895C355.017 222.305 351.627 228.996 349.524 234.918C347.67 240.145 346.894 244.784 346.908 247.305C346.954 255.015 349.987 261.348 360.588 263.221C362.75 263.579 364.916 263.78 367.059 263.658C389.479 262.375 418.802 231.479 431.355 210.277C438.694 206.841 437.699 202.479 437.971 198.063L460.519 195.688C443.983 208.089 386.401 291.16 437.662 282.851C461.874 278.928 499.838 236.557 522.737 206.501C523.818 205.082 523.824 204.869 523.068 206.612C512.446 231.121 502.804 255.442 493.646 280.974L493.672 280.758L493.698 280.542L493.725 280.327L493.751 280.111L493.777 279.896L493.803 279.681L493.83 279.465L493.856 279.249L493.882 279.034L493.909 278.819L493.934 278.603L493.961 278.387L493.987 278.172L494.013 277.957L494.04 277.741L494.066 277.525L494.092 277.31L494.118 277.095L494.145 276.879L494.171 276.663L494.197 276.448L494.223 276.232L494.25 276.017L494.276 275.801L494.302 275.586L494.328 275.37L494.354 275.155L494.381 274.939L494.407 274.724L494.434 274.508L494.46 274.293L494.486 274.077L494.512 273.861L494.538 273.646L494.564 273.431L494.591 273.215L494.617 272.999L494.643 272.784L494.669 272.569L494.696 272.353L494.722 272.137L494.748 271.922L494.775 271.706L494.8 271.491L494.827 271.275L494.853 271.06L494.879 270.844L494.905 270.629L494.932 270.413L494.958 270.198L494.984 269.982L495.011 269.766L495.037 269.551L495.063 269.336L495.089 269.12L495.115 268.905L495.141 268.689L495.168 268.473L495.194 268.258L495.22 268.042L495.247 267.827L495.273 267.612L495.299 267.395L495.325 267.18C495.893 262.513 492.434 264.144 491.355 267.251C487.328 278.824 478.115 297.684 479.197 309.804C479.954 318.293 486.816 317.404 490.195 311.133C495.861 300.619 499.274 291.299 503.299 282.057C519.871 242.881 536.888 208.831 551.6 179.835C559.664 177.982 564.62 177.008 571.756 175.562C573.567 175.351 574.055 174.768 571.663 176.99C570.1 178.442 568.701 179.997 567.196 181.514C566.24 182.617 565.015 184.195 563.52 186.067C555.975 195.518 537.15 228.087 554.563 236.835C579.725 249.478 610.558 214.208 627.259 196.17C630.841 198.33 637.9 188.63 642.128 188.433C636.785 201.333 632.488 212.374 632.104 217.875C631.545 225.865 637.768 231.28 644.29 228.179C681.356 210.562 707.899 174.493 747.997 157.539C718.674 212.803 695.36 266.134 666.879 321.978C664.409 326.825 669.79 328.396 671.815 324.742C702.149 270.068 727.786 217.478 758.299 163.037C760.762 158.642 763.141 154.851 764.505 151.449C768.603 141.227 761.968 136.997 754.293 137.497C745.748 138.055 735.514 144.582 725.813 149.869C699.709 165.866 682.242 181.354 656.48 198.996C660.283 192.077 666.987 178.699 676.173 169.851C688.132 158.331 680.538 145.617 672.266 145.775C657.591 146.056 652.514 160.365 640.147 167.389C639.072 167.999 637.987 168.273 636.95 168.533C636.808 167.816 636.666 167.118 636.461 166.423C633.989 158.047 629.553 155.93 616.587 156.373C608.44 156.653 599.592 159.909 591.054 164.169ZM579.059 196.696C589.685 184.983 603.571 177.01 619.983 175.107L619.986 175.19L619.988 175.273L619.991 175.357L619.993 175.44L619.995 175.524L619.998 175.606L620 175.69L620.002 175.773L620.005 175.857L620.007 175.94L620.01 176.023L620.012 176.106L620.014 176.19L620.017 176.273L620.019 176.356L620.021 176.44L620.024 176.523L620.026 176.606L620.028 176.69L620.031 176.773L620.033 176.856L620.036 176.94L620.039 177.023L620.041 177.106L620.043 177.189L620.046 177.273L620.048 177.356L620.05 177.44L620.053 177.523L620.055 177.606L620.057 177.689L620.06 177.772L620.062 177.856L620.065 177.939L620.067 178.023L620.069 178.105L620.072 178.189L620.074 178.272L620.077 178.356L620.079 178.439L620.081 178.522L620.084 178.605L620.086 178.689L620.089 178.772L620.091 178.855L620.093 178.939L620.096 179.022L620.098 179.106L620.1 179.188L620.103 179.272L620.105 179.355L620.108 179.439L620.11 179.522L620.113 179.605L620.115 179.688L620.117 179.772L620.12 179.855L620.122 179.938L620.125 180.022L620.126 180.105L620.129 180.188L620.132 180.271L620.134 180.355L620.137 180.438C620.288 185.713 620.704 188.292 622.539 193.119C613.822 200.298 579.937 232.412 565.913 226.254C557.408 222.52 575.66 200.443 579.059 196.696ZM374.572 178.985C400.533 137.723 430.181 99.2036 460.881 62.3159C476.729 43.2754 492.756 24.4329 509.202 6.06167C513.548 1.20668 508.678 -2.57007 504.265 2.19651C435.986 75.9737 360.652 159.91 319.405 257.451C332.604 206.148 351.388 141.514 366.239 90.1503C372.746 67.6427 360.967 57.9913 351.069 76.392C338.679 99.4256 326.13 122.353 314.37 145.822C288.426 201.412 257.042 254.332 230.468 309.698C226.663 317.624 221.477 324.234 220.027 329.887C215.656 346.926 230.808 348.991 237.077 336.596L334.26 144.455C337.265 137.575 328.701 171.565 317.319 215.272C306.251 257.78 294.371 300.054 283.301 342.529C281.69 348.709 280.272 355.318 279.827 360.973C278.887 372.896 285.281 378.505 290.845 373.198C294.184 370.014 296.406 361.726 298.858 351.798C308.352 313.35 322.005 277.355 338.607 243.313C345.307 229.561 353.43 214.464 361.327 200.86C365.61 193.48 370.037 186.192 374.572 178.985ZM55.0551 290.786C76.3825 277.932 96.7432 259.908 113.187 239.924C122.535 228.564 135.173 211.134 129.322 207.692C124.14 204.643 114.181 209.92 104.594 213.949C96.2428 217.459 90.165 221.194 81.8756 224.833L69.3584 253.312C76.6306 248.105 83.2556 244.266 89.9635 239.782C92.0975 239.469 93.9479 239.642 93.8178 243.21C93.5307 243.867 93.3549 244.638 92.849 245.03C81.5107 253.836 74.1268 259.338 61.8205 269.754C60.5236 272.611 58.0443 277.737 56.6865 280.501C52.9998 288.003 45.7182 291.298 48.167 283.757C48.4502 283.017 49.3556 280.22 49.624 279.519C46.4752 282.255 29.6365 297.378 28.2025 299.294C26.6341 301.39 42.7684 298.182 55.0551 290.786ZM300.52 153.639L274.445 165.528C264.204 183.981 252.392 205.1 241.757 224.581C223.775 257.526 208.257 286.654 190.412 319.7C189.047 322.227 187.592 324.687 185.911 326.223C179.845 331.763 171.79 333.749 174.125 319.98C176.613 305.305 180.43 291.344 184.745 272.589C185.681 268.518 191.159 269.276 190.601 272.818C189.011 282.908 187.422 292.997 185.833 303.088C205.086 266.304 220.136 238.498 238.308 203.793C239.361 201.781 239.196 202.016 237.748 203.273C228.805 211.035 219.297 218.986 210.696 227.136C197.391 239.742 183.175 253.295 174.744 254.714C170.084 255.499 168.455 249.917 169.056 243.347C160.039 254.204 134.007 266.911 124.488 251.53C106.733 274.388 75.5937 301.257 47.9391 310.765C43.2402 312.38 38.7 313.661 33.8269 314.732C26.7086 316.297 14.3898 317.986 10.3972 312.357C7.96597 308.451 7.71519 303.223 11.3242 298.714C21.3871 286.139 42.8629 271.506 56.3196 262.108L61.0931 250.114L67.8333 232.439C46.8673 244.794 25.3573 258.976 4.70484 273.246C0.0317807 276.475 -2.71626 270.35 4.0732 265.009C28.3822 244.328 56.0796 228.321 73.6265 212.059C80.4476 205.277 85.3206 190.66 94.0171 170.751L102.302 151.416C91.3667 147.991 81.3081 151.241 71.8249 160.491C67.2066 164.993 58.2144 166.963 58.2144 155.664C59.8866 135.772 97.6605 131.074 111.096 133.7L137.47 76.4976C148.566 54.6444 156.734 72.458 152.893 82.9034C144.828 101.371 132.836 120.225 124.219 138.349C132.688 141.99 136.187 151.179 134.519 160.624C132.798 170.367 126.209 179.274 121.033 186.881C131.473 186.225 144.536 184.348 145.05 205.442C154.36 202.139 185.818 178.747 192.671 201.629C195.231 210.179 190.273 224.132 181.146 230.855L181.097 239.017C202.185 222.17 224.072 205.671 245.289 189.795C247.624 185.325 249.978 180.814 252.354 176.251C250.4 177.368 244.643 180.826 239.507 184.228C231.204 189.729 219.042 202.703 209.652 201.183C203.582 200.201 198.395 189.886 207.015 182.829C218.273 173.612 251.018 159.121 264.023 154.653L315.825 56.3743C321.505 45.5997 338.502 53.5098 330.08 67.3565C319.718 85.1461 282.327 150.216 283.233 150.216C288.076 149.084 298.299 146.963 303.142 145.83C311.215 143.851 306.86 151.264 300.52 153.639ZM115.759 155.529C109.96 166.67 104.079 178.669 98.4406 190.354C97.7828 191.716 114.678 183.648 118.178 165.983C118.97 161.983 118.853 158.264 115.759 155.529Z" fill="url(#paint0_linear_18_2952)"/>
<defs>
<linearGradient id="paint0_linear_18_2952" x1="395.741" y1="0" x2="395.741" y2="375.205" gradientUnits="userSpaceOnUse">
<stop stop-color="white"/>
<stop offset="1" stop-color="white" stop-opacity="0"/>
</linearGradient>
</defs>
</svg>
