<svg width="61" height="62" viewBox="0 0 61 62" fill="none" xmlns="http://www.w3.org/2000/svg">
<rect y="0.987305" width="61" height="61" rx="30.5" fill="white"/>
<circle cx="30.6119" cy="31.3151" r="24.3405" fill="black"/>
<path fill-rule="evenodd" clip-rule="evenodd" d="M17.786 33.8346C17.5448 33.888 17.3272 33.8495 17.4317 33.706C17.7979 33.2369 18.2057 32.9187 18.7257 32.664C18.8585 32.599 18.9902 32.5326 19.1385 32.5241C19.2238 32.5191 19.2767 32.5431 19.1724 32.6425C18.9382 32.681 18.8353 32.8019 18.8637 33.0053L18.7231 33.2048C18.5292 33.4798 18.0966 33.7659 17.786 33.8346L17.786 33.8346ZM49.1165 34.7274L49.303 34.7369L49.4842 34.7645L49.6592 34.8096L49.827 34.871L49.9867 34.9479L50.1371 35.0394C50.2095 35.0908 50.2765 35.1434 50.3438 35.2018C50.408 35.2629 50.4667 35.3244 50.525 35.3917C50.5798 35.4616 50.6294 35.5312 50.6775 35.6063L50.7618 35.7614L50.8311 35.9253L50.8844 36.0968L50.9209 36.2751L50.9395 36.459V36.6465L50.9209 36.8305L50.8844 37.0088L50.831 37.1803L50.7618 37.3441L50.6775 37.4993L50.5792 37.6449C50.5243 37.7147 50.4685 37.7791 50.4071 37.8434C50.3429 37.9047 50.2784 37.9605 50.2087 38.0154L50.0631 38.1137L49.9079 38.198L49.7441 38.2673L49.5726 38.3206L49.3943 38.3571L49.2103 38.3757H49.0228L48.8389 38.3571L48.6606 38.3206L48.489 38.2673L48.3252 38.198L48.1701 38.1137C48.0952 38.0657 48.0255 38.0161 47.9555 37.9611C47.8884 37.9031 47.8268 37.8443 47.7655 37.78C47.7073 37.7128 47.6546 37.6457 47.6032 37.5734L47.5117 37.4229L47.4348 37.2632L47.3734 37.0955L47.3283 36.9204L47.3007 36.7392L47.2912 36.5527L47.3007 36.3664L47.3283 36.1852L47.3734 36.0101L47.4348 35.8423L47.5117 35.6827L47.6032 35.5322C47.6548 35.4597 47.7075 35.3926 47.7655 35.3256C47.8269 35.2611 47.8885 35.2024 47.9556 35.1444L48.096 35.0394C48.1714 34.991 48.2457 34.9483 48.3252 34.9076L48.4891 34.8383L48.6606 34.7849L48.8389 34.7485L49.0228 34.7298L49.1165 34.7274V34.7274ZM49.1166 34.9772C49.1981 34.9793 49.2756 34.9851 49.3567 34.9954C49.4347 35.0093 49.5086 35.0264 49.5851 35.0481C49.6588 35.073 49.7284 35.1003 49.7995 35.1325C49.868 35.1677 49.9322 35.2045 49.9973 35.2463C50.0598 35.2907 50.1177 35.3361 50.1759 35.3866C50.2312 35.4393 50.2821 35.4926 50.3324 35.5507C50.3798 35.611 50.4226 35.6712 50.4641 35.736C50.5026 35.8029 50.5365 35.869 50.5684 35.9396C50.597 36.0124 50.6211 36.0835 50.6426 36.159C50.6605 36.2368 50.674 36.312 50.684 36.3915C50.6902 36.4733 50.6921 36.5518 50.6901 36.6341C50.684 36.7143 50.6744 36.7909 50.6602 36.8704C50.6425 36.9471 50.6219 37.0197 50.5966 37.0945C50.5681 37.1666 50.5375 37.2345 50.502 37.3036C50.4637 37.3704 50.4238 37.4326 50.3792 37.4954C50.3318 37.5556 50.2836 37.6113 50.2306 37.6668C50.1752 37.7198 50.1194 37.768 50.0592 37.8154C49.9964 37.86 49.9342 37.9 49.8674 37.9383C49.7983 37.9737 49.7304 38.0043 49.6583 38.0328C49.5835 38.0581 49.5109 38.0787 49.4342 38.0964C49.3547 38.1106 49.2781 38.1202 49.1979 38.1263C49.1155 38.1283 49.0374 38.1264 48.9553 38.1202C48.876 38.1102 48.8009 38.0968 48.7228 38.0788C48.6475 38.0574 48.5764 38.0334 48.5034 38.0046C48.433 37.9728 48.3669 37.9389 48.2998 37.9004C48.2351 37.8589 48.1749 37.8161 48.1145 37.7686C48.0565 37.7184 48.0033 37.6675 47.9504 37.6121C47.9001 37.554 47.8545 37.4961 47.8101 37.4335C47.7684 37.3685 47.7315 37.3043 47.6963 37.2357C47.6642 37.1647 47.6368 37.0951 47.6118 37.0213C47.5902 36.9449 47.5731 36.871 47.5592 36.7929C47.5489 36.7119 47.5431 36.6343 47.541 36.5528C47.5431 36.4711 47.5489 36.3935 47.5592 36.3127C47.5731 36.2344 47.5902 36.1606 47.6118 36.0843C47.6369 36.0103 47.6642 35.9409 47.6963 35.87C47.7316 35.8011 47.7686 35.7369 47.8101 35.672C47.8547 35.6093 47.9002 35.5514 47.9504 35.4934C48.0034 35.4378 48.0567 35.3871 48.1145 35.337C48.1751 35.2895 48.2351 35.2467 48.2998 35.2053C48.367 35.1667 48.433 35.1329 48.5034 35.101C48.5765 35.0722 48.6476 35.0482 48.7229 35.0268C48.801 35.0087 48.8761 34.9954 48.9554 34.9854L49.1166 34.9772H49.1166ZM48.3187 37.4775V35.4782H49.1687C49.3823 35.4782 49.5373 35.4964 49.6341 35.5322C49.731 35.5681 49.8087 35.6318 49.8669 35.7236C49.9251 35.8157 49.9539 35.9205 49.9539 36.0387C49.9539 36.1886 49.9097 36.3129 49.8217 36.4106C49.7338 36.5079 49.6016 36.5698 49.4261 36.595C49.5136 36.6462 49.5857 36.702 49.6425 36.763C49.6993 36.824 49.7757 36.932 49.872 37.0874L50.1164 37.4775H49.6337L49.3418 37.0423C49.238 36.8868 49.1673 36.7891 49.1291 36.7486C49.0909 36.7081 49.0504 36.6806 49.0076 36.6652C48.9648 36.6503 48.8973 36.6429 48.8042 36.6429H48.7227V37.4775H48.3187L48.3187 37.4775ZM48.7227 36.3236H49.0211C49.2148 36.3236 49.3358 36.3157 49.3842 36.2994C49.4321 36.2831 49.4698 36.2547 49.4973 36.2147C49.5243 36.1746 49.5383 36.1248 49.5383 36.0648C49.5383 35.9973 49.5201 35.9433 49.4843 35.9018C49.4484 35.8604 49.3977 35.8344 49.3321 35.8232C49.2995 35.819 49.2012 35.8167 49.0374 35.8167H48.7227V36.3236H48.7227ZM31.8949 32.0502C32.2225 32.4296 31.4914 33.1605 30.699 33.7234C29.9529 34.2533 29.2152 34.5587 28.9659 34.2966C28.7793 34.0239 29.418 33.0895 30.187 32.5123C30.8346 32.0261 31.6319 31.7818 31.8949 32.0502ZM40.6445 30.1823C40.1852 30.2135 39.5307 30.2648 38.9827 30.2906C39.4608 29.3808 40.9464 27.0716 41.7369 25.8982C41.9432 25.5921 41.992 25.2717 41.992 25.0625C41.992 24.5664 41.4733 24.7403 41.2859 24.9756C40.498 25.9643 38.3444 29.7165 38.0765 30.3398C37.4962 30.3686 36.5841 30.4161 35.9873 30.4579C35.378 30.5093 35.5208 31.567 36.1386 31.4447C36.7635 31.3209 37.3897 31.1932 37.6704 31.137L37.5975 31.288C36.511 32.4661 34.9401 34.1217 33.5409 34.8742C33.1928 35.0614 32.474 35.3809 32.5142 34.9893C32.5356 34.7809 32.7989 34.3262 33.0059 34.0286C33.4664 33.3663 34.3168 32.6591 34.9716 32.0012C35.2099 31.7619 35.542 31.4208 35.4313 31.063C35.3243 30.7174 35.0813 30.633 34.8122 30.6283C34.6397 30.6252 34.4564 30.6549 34.2913 30.6695C33.6677 30.7246 33.0843 30.7769 32.4562 30.8284C32.3127 30.8402 32.2573 30.8997 32.2108 31.0081C31.4577 30.8757 30.8441 31.0694 29.9633 31.5404C29.6643 31.7004 29.1275 32.0794 28.6945 32.7302C28.5205 32.9916 28.3464 33.315 28.2384 33.6012C28.1431 33.8538 28.1033 34.0779 28.104 34.1997C28.1064 34.5723 28.2622 34.8784 28.8067 34.9689C28.9177 34.9862 29.029 34.9959 29.1391 34.99C30.2907 34.928 31.7968 33.435 32.4416 32.4104C32.8186 32.2444 32.7675 32.0336 32.7814 31.8202L33.9396 31.7054C33.0903 32.3047 30.1326 36.319 32.7656 35.9175C34.0092 35.7279 35.9592 33.6804 37.1355 32.228C37.1909 32.1594 37.1913 32.1491 37.1524 32.2333C36.6069 33.4177 36.1116 34.593 35.6412 35.8268L35.6425 35.8163L35.6439 35.8059L35.6452 35.7955L35.6466 35.7851L35.6479 35.7747L35.6493 35.7643L35.6506 35.7538L35.652 35.7434L35.6533 35.733L35.6547 35.7226L35.656 35.7122L35.6573 35.7018L35.6587 35.6913L35.66 35.681L35.6614 35.6705L35.6628 35.6601L35.6641 35.6497L35.6654 35.6393L35.6668 35.6289L35.6681 35.6185L35.6695 35.608L35.6708 35.5976L35.6722 35.5872L35.6735 35.5768L35.6749 35.5664L35.6762 35.556L35.6776 35.5456L35.6789 35.5351L35.6803 35.5247L35.6816 35.5143L35.683 35.5039L35.6843 35.4935L35.6856 35.4831L35.687 35.4727L35.6884 35.4623L35.6897 35.4518L35.6911 35.4414L35.6924 35.431L35.6937 35.4206L35.6951 35.4102L35.6964 35.3997L35.6978 35.3893L35.6992 35.3789L35.7005 35.3685L35.7018 35.3581L35.7032 35.3477L35.7045 35.3372L35.7059 35.3268L35.7072 35.3164L35.7086 35.306L35.7099 35.2956L35.7113 35.2852L35.7126 35.2748L35.714 35.2644L35.7153 35.2539L35.7166 35.2435L35.718 35.2331L35.7194 35.2227L35.7207 35.2123L35.722 35.2019L35.7234 35.1914L35.7247 35.1811L35.7261 35.1706L35.7274 35.1602C35.7566 34.9347 35.5789 35.0135 35.5235 35.1636C35.3167 35.7229 34.8434 36.6343 34.899 37.22C34.9379 37.6302 35.2903 37.5872 35.4639 37.2842C35.755 36.7761 35.9303 36.3257 36.137 35.8791C36.9882 33.9859 37.8623 32.3405 38.618 30.9393C39.0322 30.8498 39.2868 30.8027 39.6533 30.7329C39.7463 30.7227 39.7714 30.6945 39.6485 30.8018C39.5682 30.872 39.4964 30.9472 39.4191 31.0205C39.37 31.0738 39.307 31.15 39.2303 31.2405C38.8427 31.6972 37.8758 33.271 38.7702 33.6938C40.0626 34.3048 41.6464 32.6004 42.5042 31.7287C42.6882 31.8331 43.0508 31.3643 43.2679 31.3548C42.9935 31.9782 42.7728 32.5117 42.7531 32.7776C42.7243 33.1637 43.044 33.4254 43.379 33.2755C45.2829 32.4242 46.6462 30.6812 48.7058 29.8619C47.1997 32.5325 46.0022 35.1096 44.5393 37.8082C44.4124 38.0425 44.6888 38.1184 44.7928 37.9418C46.3509 35.2997 47.6677 32.7584 49.235 30.1276C49.3616 29.9152 49.4838 29.732 49.5538 29.5676C49.7643 29.0737 49.4235 28.8693 49.0293 28.8934C48.5903 28.9204 48.0647 29.2358 47.5664 29.4913C46.2256 30.2643 45.3284 31.0127 44.0051 31.8653C44.2005 31.5309 44.5448 30.8844 45.0167 30.4569C45.6309 29.9002 45.2409 29.2858 44.816 29.2934C44.0622 29.307 43.8014 29.9985 43.1662 30.3379C43.111 30.3674 43.0552 30.3806 43.002 30.3932C42.9947 30.3585 42.9874 30.3248 42.9769 30.2912C42.8499 29.8865 42.622 29.7842 41.956 29.8056C41.5376 29.8191 41.0831 29.9764 40.6445 30.1823L40.6445 30.1823ZM40.0284 31.7541C40.5742 31.1881 41.2875 30.8028 42.1305 30.7109L42.1306 30.7149L42.1307 30.7189L42.1308 30.7229L42.131 30.727L42.1311 30.731L42.1312 30.735L42.1313 30.739L42.1314 30.7431L42.1316 30.7471L42.1317 30.7511L42.1318 30.7551L42.1319 30.7592L42.132 30.7632L42.1322 30.7672L42.1323 30.7712L42.1324 30.7753L42.1326 30.7793L42.1327 30.7833L42.1328 30.7873L42.1329 30.7914L42.133 30.7954L42.1332 30.7994L42.1333 30.8035L42.1334 30.8075L42.1335 30.8115L42.1337 30.8155L42.1338 30.8196L42.1339 30.8236L42.1341 30.8276L42.1342 30.8316L42.1343 30.8357L42.1344 30.8397L42.1345 30.8437L42.1347 30.8477L42.1348 30.8518L42.1349 30.8558L42.135 30.8598L42.1351 30.8638L42.1353 30.8679L42.1354 30.8719L42.1355 30.8759L42.1356 30.8799L42.1358 30.884L42.1359 30.888L42.136 30.892L42.1361 30.896L42.1362 30.9001L42.1364 30.9041L42.1365 30.9081L42.1366 30.9121L42.1367 30.9162L42.1369 30.9202L42.137 30.9242L42.1371 30.9282L42.1372 30.9322L42.1374 30.9363L42.1375 30.9403L42.1376 30.9443L42.1377 30.9484L42.1378 30.9524L42.138 30.9564L42.1381 30.9604L42.1382 30.9644L42.1383 30.9685C42.1461 31.2234 42.1675 31.348 42.2618 31.5813C41.814 31.9282 40.0735 33.4801 39.3532 33.1825C38.9163 33.002 39.8538 31.9352 40.0284 31.7541L40.0284 31.7541ZM29.525 30.8983C30.8584 28.9043 32.3813 27.0429 33.9582 25.2604C34.7722 24.3403 35.5955 23.4297 36.4402 22.5419C36.6635 22.3073 36.4133 22.1248 36.1866 22.3552C32.6795 25.9204 28.81 29.9765 26.6913 34.6901C27.3693 32.2109 28.3341 29.0875 29.097 26.6054C29.4312 25.5178 28.8262 25.0514 28.3178 25.9406C27.6813 27.0536 27.0367 28.1616 26.4327 29.2957C25.1001 31.982 23.4881 34.5393 22.1231 37.2148C21.9277 37.5978 21.6613 37.9173 21.5868 38.1905C21.3623 39.0138 22.1406 39.1136 22.4626 38.5147L27.4543 29.2296C27.6087 28.8972 27.1688 30.5397 26.5842 32.6518C26.0157 34.7059 25.4055 36.7488 24.8369 38.8014C24.7541 39.1 24.6813 39.4194 24.6584 39.6926C24.6101 40.2688 24.9386 40.5399 25.2243 40.2834C25.3958 40.1295 25.51 39.729 25.6359 39.2492C26.1236 37.3913 26.8249 35.6519 27.6776 34.0068C28.0218 33.3423 28.439 32.6128 28.8447 31.9554C29.0646 31.5987 29.292 31.2466 29.525 30.8983L29.525 30.8983ZM13.1131 36.3009C14.2085 35.6798 15.2544 34.8088 16.099 33.8431C16.5791 33.2941 17.2283 32.4518 16.9278 32.2855C16.6616 32.1382 16.1501 32.3931 15.6576 32.5879C15.2286 32.7575 14.9165 32.938 14.4907 33.1138L13.8477 34.49C14.2213 34.2384 14.5616 34.0529 14.9061 33.8362C15.0157 33.8211 15.1108 33.8294 15.1041 34.0019C15.0893 34.0336 15.0803 34.0709 15.0543 34.0898C14.4719 34.5154 14.0927 34.7812 13.4606 35.2846C13.3939 35.4227 13.2666 35.6704 13.1968 35.8039C13.0075 36.1664 12.6335 36.3256 12.7592 35.9613C12.7738 35.9255 12.8203 35.7903 12.8341 35.7564C12.6723 35.8887 11.8074 36.6195 11.7338 36.7121C11.6532 36.8134 12.482 36.6583 13.1131 36.3009L13.1131 36.3009ZM25.7213 29.6735L24.382 30.248C23.856 31.1397 23.2492 32.1602 22.703 33.1017C21.7793 34.6937 20.9823 36.1012 20.0656 37.6982C19.9955 37.8203 19.9208 37.9392 19.8344 38.0134C19.5229 38.2811 19.1091 38.3771 19.229 37.7117C19.3568 37.0025 19.5529 36.3279 19.7745 35.4216C19.8226 35.2248 20.104 35.2615 20.0753 35.4326C19.9937 35.9202 19.912 36.4078 19.8304 36.8954C20.8194 35.1179 21.5924 33.7742 22.5258 32.0971C22.5799 31.9999 22.5714 32.0112 22.497 32.072C22.0377 32.447 21.5493 32.8313 21.1075 33.2251C20.4241 33.8343 19.6939 34.4892 19.2609 34.5578C19.0215 34.5957 18.9378 34.326 18.9687 34.0085C18.5055 34.5331 17.1684 35.1472 16.6795 34.4039C15.7675 35.5085 14.168 36.8069 12.7475 37.2664C12.5062 37.3444 12.273 37.4063 12.0227 37.4581C11.657 37.5337 11.0243 37.6153 10.8192 37.3433C10.6943 37.1546 10.6814 36.9019 10.8668 36.684C11.3837 36.0763 12.4868 35.3693 13.178 34.9151L13.4232 34.3355L13.7694 33.4814C12.6925 34.0784 11.5876 34.7637 10.5268 35.4533C10.2868 35.6094 10.1456 35.3134 10.4944 35.0553C11.743 34.0559 13.1657 33.2824 14.067 32.4965C14.4173 32.1688 14.6676 31.4624 15.1143 30.5004L15.5399 29.566C14.9782 29.4005 14.4615 29.5576 13.9744 30.0045C13.7372 30.2221 13.2753 30.3173 13.2753 29.7713C13.3612 28.8101 15.3015 28.583 15.9916 28.7099L17.3463 25.9457C17.9162 24.8897 18.3358 25.7505 18.1385 26.2552C17.7242 27.1477 17.1083 28.0587 16.6656 28.9346C17.1007 29.1105 17.2804 29.5546 17.1947 30.011C17.1063 30.4818 16.7678 30.9122 16.502 31.2798C17.0383 31.2481 17.7092 31.1575 17.7356 32.1768C18.2138 32.0172 19.8297 30.8868 20.1817 31.9925C20.3132 32.4057 20.0585 33.08 19.5897 33.4048L19.5872 33.7992C20.6703 32.9851 21.7946 32.1878 22.8844 31.4207L22.8844 31.4206C23.0044 31.2046 23.1252 30.9866 23.2472 30.7662C23.1469 30.8201 22.8512 30.9872 22.5874 31.1516C22.1609 31.4174 21.5362 32.0444 21.0539 31.971C20.7421 31.9235 20.4757 31.425 20.9184 31.084C21.4967 30.6386 23.1787 29.9384 23.8467 29.7224L26.5075 24.9732C26.7992 24.4526 27.6722 24.8348 27.2396 25.504C26.7074 26.3636 24.7868 29.508 24.8334 29.508C25.0821 29.4534 25.6072 29.3508 25.856 29.2961C26.2707 29.2004 26.0469 29.5587 25.7213 29.6735L25.7213 29.6735ZM16.2311 29.7648C15.9332 30.3031 15.6311 30.883 15.3415 31.4477C15.3077 31.5135 16.1756 31.1236 16.3553 30.27C16.396 30.0767 16.39 29.897 16.2311 29.7648H16.2311Z" fill="white"/>
</svg>
